<svg xmlns="http://www.w3.org/2000/svg" width="172" height="25.614" viewBox="0 0 172 25.614">
  <path id="パス_1328" data-name="パス 1328" d="M267.637,326.912h7.207l3.31,17.932h.075V326.912h4.066v24.654h-6.67l-3.861-20.6h-.058v20.6h-4.069Zm15.79,24.654V326.912h10.779v3.742h-5.582v5.4h5.392v3.728h-5.392v8.036h5.582v3.747Zm11.576,0V326.912h5.2v24.654Zm16.312-1.25a4.2,4.2,0,0,1-2.13,1.381,6.79,6.79,0,0,1-2.384.349c-3.414,0-5.321-1.561-5.321-7.2V333.627c0-5.644,3.132-7.2,6.579-7.2,4.185,0,6.543,1.859,6.607,6.712l-.037,2.6h-5.2V332.3c0-1-.284-1.919-1.367-1.919s-1.376.923-1.376,1.919v13.862c0,1,.248,1.933,1.376,1.933,1.083,0,1.367-.935,1.367-1.933v-3.3h-1.982v-3.728h7.185v12.431H311.6Zm4.709,1.25V326.912h5.191v9.143h2.772v-9.143h5.191v24.654h-5.191V339.783h-2.772v11.783Zm14.538-24.654h5.273c4.413,0,7.893.069,7.893,5.992,0,2.724-.728,5.2-3.7,5.506v.238c3.313,0,3.7,2.7,3.7,5.885,0,6.785-2.393,7.032-7.893,7.032h-5.273Zm5.2,21.12c2.786.28,2.77-1.491,2.77-4.059,0-3.482-.568-3.531-2.77-3.531Zm0-11.125c1.652-.1,2.77.5,2.77-3.209,0-2.425-.2-3.426-2.77-3.263Zm22.5,7.937c0,5.641-3.129,7.2-6.568,7.2s-6.583-1.561-6.583-7.2V333.627c0-5.644,3.138-7.2,6.583-7.2s6.568,1.552,6.568,7.2Zm-7.948,1.318c0,1,.287,1.933,1.379,1.933s1.36-.935,1.36-1.933V332.3c0-1-.275-1.919-1.36-1.919s-1.379.923-1.379,1.919Zm9.279,5.4V326.912h5.237c4.935,0,7.889.56,7.889,5.742,0,3.1-1.156,5.107-3.978,5.611v.067c2.51.079,3.978,1.112,3.978,4.646v5.152a6.935,6.935,0,0,0,.78,3.437h-5.233a7.014,7.014,0,0,1-.734-3.437V342.9c0-1.72-.968-2.593-1.892-2.593h-.847v11.255Zm5.2-14.786c2.338,0,2.739-.872,2.739-3.174s-.359-3.17-2.739-3.17Zm9.408,14.786V326.912h5.193v9.143h2.759v-9.143h5.205v24.654h-5.205V339.783H379.39v11.783Zm27.691-6.721c0,5.641-3.127,7.2-6.576,7.2s-6.57-1.561-6.57-7.2V333.627c0-5.644,3.129-7.2,6.57-7.2s6.576,1.552,6.576,7.2Zm-7.95,1.318c0,1,.286,1.933,1.374,1.933s1.366-.935,1.366-1.933V332.3c0-1-.274-1.919-1.366-1.919s-1.374.923-1.374,1.919Zm22.51-1.318c0,5.641-3.142,7.2-6.578,7.2-3.472,0-6.577-1.561-6.577-7.2V333.627c0-5.644,3.1-7.2,6.577-7.2,3.436,0,6.578,1.552,6.578,7.2Zm-7.964,1.318c0,1,.284,1.933,1.387,1.933s1.365-.935,1.365-1.933V332.3c0-1-.273-1.919-1.365-1.919s-1.387.923-1.387,1.919Zm9.35-19.251h5.341c5.829,0,7.811,1.049,7.811,8.42v8.8c0,4.656-1.257,7.434-7.811,7.434h-5.341Zm5.193,21.12c2.545,0,2.757-1.076,2.757-3.438V334.455c0-3.288-.123-4.019-2.757-4.019Zm10.793-2.694h2.58a1.05,1.05,0,0,1,1.07.735,1.462,1.462,0,0,1,.051.933,1.18,1.18,0,0,1-.633.75.78.78,0,0,1,.511.631c.029.2.048.8.048,1.041,0,.269.084.318.192.384v.175h-1.044a1.2,1.2,0,0,1-.132-.44c-.007-.229-.007-.593,0-.935-.007-.309-.232-.471-.565-.471h-1.127v1.846h-.95Zm.95,2.011h1.315a.631.631,0,0,0,.569-.7c0-.319-.172-.515-.589-.515h-1.3Zm.949-3.61a3.914,3.914,0,1,0,3.919,3.914A3.912,3.912,0,0,0,435.718,343.738Zm0,7.064a3.15,3.15,0,1,1,3.149-3.15A3.155,3.155,0,0,1,435.718,350.8Z" transform="translate(-267.638 -326.432)" fill="#222"/>
</svg>
